<svg width="630" height="520" viewBox="0 0 63 52" fill="none" xmlns="http://www.w3.org/2000/svg">
<path d="M39 6.99531L45.5759 0.418766C46.4704 -0.475816 48 0.157766 48 1.423V18.9964C47.9999 13.2963 43.4869 9.82971 39 6.99531Z" fill="#FF7236"/>
<path d="M47.9998 18.9966C47.9998 27.834 40.8363 34.998 31.9999 34.998C23.1634 34.998 16 27.8339 16 18.9966C16 10.1593 23.1633 3.99524 31.9999 3.99524C40.8364 3.99524 47.9998 10.1592 47.9998 18.9966Z" fill="#FFAA50"/>
<path d="M25 18.9964C25 11.2947 29.4219 5.62687 35.3103 4.29649C34.2417 4.1004 33.1354 3.99505 32 3.99505C29.0556 3.99505 26.3064 4.6923 23.9366 5.93182L18.4241 0.418766C17.5296 -0.475816 16 0.157766 16 1.423V18.9964C16 18.6357 16 18.6377 16 18.9964C16 27.8338 23.1634 34.9978 31.9999 34.9978C33.1354 34.9978 34.2417 34.8756 35.3102 34.6508C29.4219 33.1252 25 26.6981 25 18.9964Z" fill="#FF7236"/>
<path d="M28.4999 28.9973C30.4329 28.9973 31.9999 27.6541 31.9999 25.9971C31.9999 24.3401 30.4329 22.9968 28.4999 22.9968C26.567 22.9968 25 24.3401 25 25.9971C25 27.6541 26.567 28.9973 28.4999 28.9973Z" fill="#FFFDFB"/>
<path d="M35.5004 28.9973C37.4334 28.9973 39.0004 27.6541 39.0004 25.9971C39.0004 24.3401 37.4334 22.9968 35.5004 22.9968C33.5675 22.9968 32.0005 24.3401 32.0005 25.9971C32.0005 27.6541 33.5675 28.9973 35.5004 28.9973Z" fill="#FFFDFB"/>
<path d="M32 25.9977C33.1046 25.9977 34 25.1022 34 23.9975C34 22.8928 33.1046 21.9973 32 21.9973C30.8954 21.9973 30 22.8928 30 23.9975C30 25.1022 30.8954 25.9977 32 25.9977Z" fill="#FF913C"/>
<path d="M26 19.9965C25.4472 19.9965 25 19.5487 25 18.9964V17.9964C25 17.4441 25.4473 16.9963 26 16.9963C26.5526 16.9963 26.9999 17.4441 26.9999 17.9964V18.9964C26.9999 19.5487 26.5526 19.9965 26 19.9965Z" fill="#1A212F"/>
<path d="M38 19.9965C37.4472 19.9965 37 19.5487 37 18.9964V17.9964C37 17.4441 37.4473 16.9963 38 16.9963C38.5527 16.9963 38.9999 17.4441 38.9999 17.9964V18.9964C39 19.5487 38.5527 19.9965 38 19.9965Z" fill="#1A212F"/>
</svg>
